<svg xmlns="http://www.w3.org/2000/svg" xmlns:xlink="http://www.w3.org/1999/xlink" width="290" zoomAndPan="magnify" viewBox="0 0 217.5 67.499998" height="90" preserveAspectRatio="xMidYMid meet" version="1.0"><defs><g/><clipPath id="8d304c67ad"><path d="M 0.550781 0 L 216.453125 0 L 216.453125 67.003906 L 0.550781 67.003906 Z M 0.550781 0 " clip-rule="nonzero"/></clipPath><clipPath id="ceaa7c5101"><path d="M 115 22 L 147 22 L 147 48 L 115 48 Z M 115 22 " clip-rule="nonzero"/></clipPath><clipPath id="d8a4275ae7"><path d="M 115.609375 28.472656 L 141.363281 21.042969 L 146.726562 39.640625 L 120.976562 47.070312 Z M 115.609375 28.472656 " clip-rule="nonzero"/></clipPath><clipPath id="6011a207c6"><path d="M 39.335938 50.476562 L 140.910156 21.171875 L 146.277344 39.769531 L 44.703125 69.074219 Z M 39.335938 50.476562 " clip-rule="nonzero"/></clipPath></defs><g clip-path="url(#8d304c67ad)"><path fill="#ffffff" d="M 0.550781 0 L 216.453125 0 L 216.453125 67.003906 L 0.550781 67.003906 Z M 0.550781 0 " fill-opacity="1" fill-rule="nonzero"/><path fill="#ffffff" d="M 0.550781 0 L 216.453125 0 L 216.453125 67.003906 L 0.550781 67.003906 Z M 0.550781 0 " fill-opacity="1" fill-rule="nonzero"/></g><g fill="#231f20" fill-opacity="1"><g transform="translate(72.843225, 49.001939)"><g><path d="M 24.21875 -8.5625 C 24.457031 -8.601562 24.695312 -8.617188 24.9375 -8.609375 C 25.1875 -8.597656 25.425781 -8.53125 25.65625 -8.40625 C 25.695312 -8.363281 25.734375 -8.296875 25.765625 -8.203125 C 25.796875 -8.109375 25.820312 -8.015625 25.84375 -7.921875 C 25.84375 -7.878906 25.820312 -7.832031 25.78125 -7.78125 C 25.738281 -7.726562 25.695312 -7.679688 25.65625 -7.640625 C 25.550781 -7.578125 25.445312 -7.53125 25.34375 -7.5 C 23.957031 -7.226562 22.675781 -6.769531 21.5 -6.125 C 20.320312 -5.476562 19.203125 -4.734375 18.140625 -3.890625 C 16.691406 -2.753906 15.351562 -1.507812 14.125 -0.15625 C 12.90625 1.1875 11.753906 2.59375 10.671875 4.0625 C 8.617188 6.820312 6.707031 9.6875 4.9375 12.65625 C 4.53125 13.34375 4.113281 14.015625 3.6875 14.671875 C 3.632812 14.796875 3.566406 14.914062 3.484375 15.03125 C 3.285156 15.34375 3.070312 15.640625 2.84375 15.921875 C 2.21875 16.578125 1.492188 16.738281 0.671875 16.40625 C 0.328125 16.226562 0.128906 15.992188 0.078125 15.703125 C 0.0234375 15.421875 0.03125 15.125 0.09375 14.8125 C 0.5625 10.613281 0.835938 6.425781 0.921875 2.25 C 1.085938 -3.363281 1.195312 -8.972656 1.25 -14.578125 C 1.300781 -20.191406 1.210938 -25.800781 0.984375 -31.40625 C 0.835938 -34.769531 0.648438 -38.140625 0.421875 -41.515625 C 0.316406 -43.066406 0.207031 -44.617188 0.09375 -46.171875 C 0.09375 -46.296875 0.0820312 -46.410156 0.0625 -46.515625 C 0.0390625 -46.835938 0.03125 -47.160156 0.03125 -47.484375 C 0.0703125 -47.972656 0.347656 -48.242188 0.859375 -48.296875 C 1.148438 -48.347656 1.414062 -48.320312 1.65625 -48.21875 C 1.894531 -48.113281 2.035156 -47.953125 2.078125 -47.734375 C 2.265625 -46.941406 2.398438 -46.144531 2.484375 -45.34375 C 2.484375 -45.113281 2.492188 -44.878906 2.515625 -44.640625 C 2.835938 -40.265625 3.113281 -35.890625 3.34375 -31.515625 C 3.570312 -27.171875 3.679688 -22.828125 3.671875 -18.484375 C 3.671875 -14.140625 3.613281 -9.789062 3.5 -5.4375 C 3.4375 -1.875 3.34375 1.695312 3.21875 5.28125 C 3.195312 6.101562 3.15625 6.925781 3.09375 7.75 C 3.050781 8.226562 3.019531 8.695312 3 9.15625 C 2.976562 9.5625 2.953125 9.976562 2.921875 10.40625 C 2.921875 10.59375 2.910156 10.785156 2.890625 10.984375 C 2.960938 11.003906 3.019531 11.023438 3.0625 11.046875 C 3.125 11.046875 3.1875 11.050781 3.25 11.0625 C 3.351562 10.90625 3.457031 10.75 3.5625 10.59375 C 3.84375 10.144531 4.132812 9.703125 4.4375 9.265625 C 6.40625 6.109375 8.582031 3.117188 10.96875 0.296875 C 12.175781 -1.128906 13.460938 -2.453125 14.828125 -3.671875 C 16.203125 -4.890625 17.707031 -5.96875 19.34375 -6.90625 C 20.113281 -7.332031 20.894531 -7.691406 21.6875 -7.984375 C 22.488281 -8.285156 23.332031 -8.476562 24.21875 -8.5625 Z M 24.21875 -8.5625 "/></g></g></g><g fill="#231f20" fill-opacity="1"><g transform="translate(96.300374, 49.001939)"><g><path d="M 14.984375 -7.28125 C 15.191406 -7.269531 15.148438 -6.976562 14.859375 -6.40625 C 14.578125 -5.84375 14.109375 -5.191406 13.453125 -4.453125 C 12.804688 -3.722656 12.078125 -3.09375 11.265625 -2.5625 C 10.460938 -2.03125 9.660156 -1.789062 8.859375 -1.84375 C 8.265625 -1.894531 7.820312 -2.070312 7.53125 -2.375 C 7.25 -2.675781 7.054688 -3.003906 6.953125 -3.359375 C 6.847656 -3.722656 6.78125 -4.039062 6.75 -4.3125 C 6.726562 -4.507812 6.703125 -4.65625 6.671875 -4.75 C 6.648438 -4.84375 6.59375 -4.847656 6.5 -4.765625 C 5.882812 -3.347656 4.8125 -2.640625 3.28125 -2.640625 C 2.4375 -2.640625 1.75 -3.015625 1.21875 -3.765625 C 0.6875 -4.515625 0.347656 -5.457031 0.203125 -6.59375 C 0.0664062 -7.726562 0.175781 -8.882812 0.53125 -10.0625 C 0.625 -10.445312 0.863281 -10.710938 1.25 -10.859375 C 1.519531 -10.960938 1.796875 -10.953125 2.078125 -10.828125 C 2.367188 -10.703125 2.523438 -10.507812 2.546875 -10.25 C 2.546875 -9.988281 2.523438 -9.734375 2.484375 -9.484375 C 2.441406 -9.296875 2.410156 -9.113281 2.390625 -8.9375 C 2.347656 -8.238281 2.359375 -7.472656 2.421875 -6.640625 C 2.484375 -5.816406 2.707031 -5.109375 3.09375 -4.515625 C 3.457031 -4.046875 3.859375 -3.988281 4.296875 -4.34375 C 4.742188 -4.695312 5.132812 -5.242188 5.46875 -5.984375 C 5.738281 -6.578125 5.945312 -7.164062 6.09375 -7.75 C 6.238281 -8.332031 6.332031 -8.78125 6.375 -9.09375 C 6.414062 -9.226562 6.4375 -9.316406 6.4375 -9.359375 C 6.5 -9.609375 6.566406 -9.851562 6.640625 -10.09375 C 6.742188 -10.457031 6.847656 -10.804688 6.953125 -11.140625 C 7.140625 -11.796875 7.601562 -12.070312 8.34375 -11.96875 C 8.800781 -11.925781 9.046875 -11.703125 9.078125 -11.296875 C 9.117188 -10.742188 9.128906 -10.195312 9.109375 -9.65625 C 9.085938 -9.070312 9.0625 -8.503906 9.03125 -7.953125 C 8.976562 -7.148438 8.941406 -6.351562 8.921875 -5.5625 C 8.898438 -4.414062 9.128906 -3.75 9.609375 -3.5625 C 10.085938 -3.375 10.671875 -3.492188 11.359375 -3.921875 C 12.054688 -4.359375 12.722656 -4.945312 13.359375 -5.6875 C 13.410156 -5.757812 13.484375 -5.847656 13.578125 -5.953125 C 13.703125 -6.117188 13.851562 -6.300781 14.03125 -6.5 C 14.21875 -6.707031 14.394531 -6.882812 14.5625 -7.03125 C 14.738281 -7.1875 14.878906 -7.269531 14.984375 -7.28125 Z M 14.984375 -7.28125 "/></g></g></g><g fill="#231f20" fill-opacity="1"><g transform="translate(110.426824, 49.001939)"><g><path d="M 10.703125 -7.578125 C 11.429688 -7.765625 11.722656 -7.753906 11.578125 -7.546875 C 11.441406 -7.335938 10.972656 -7.125 10.171875 -6.90625 C 9.566406 -6.75 9.046875 -6.671875 8.609375 -6.671875 C 8.179688 -6.671875 7.789062 -6.8125 7.4375 -7.09375 C 7.34375 -6.800781 7.253906 -6.515625 7.171875 -6.234375 C 6.992188 -5.660156 6.828125 -5.117188 6.671875 -4.609375 C 6.453125 -3.859375 6.140625 -3.15625 5.734375 -2.5 C 5.398438 -1.957031 4.953125 -1.585938 4.390625 -1.390625 C 3.835938 -1.191406 3.296875 -1.191406 2.765625 -1.390625 C 2.234375 -1.597656 1.800781 -2.015625 1.46875 -2.640625 C 1.039062 -3.523438 0.753906 -4.457031 0.609375 -5.4375 C 0.285156 -6.882812 0.09375 -8.351562 0.03125 -9.84375 C 0.0078125 -10.175781 0.0195312 -10.503906 0.0625 -10.828125 C 0.125 -11.242188 0.390625 -11.453125 0.859375 -11.453125 C 1.203125 -11.441406 1.410156 -11.238281 1.484375 -10.84375 C 1.554688 -10.445312 1.59375 -10.050781 1.59375 -9.65625 C 1.59375 -9.5 1.601562 -9.367188 1.625 -9.265625 C 1.625 -9.117188 1.671875 -8.632812 1.765625 -7.8125 C 1.859375 -7 2 -6.128906 2.1875 -5.203125 C 2.382812 -4.273438 2.617188 -3.566406 2.890625 -3.078125 C 3.171875 -2.585938 3.503906 -2.597656 3.890625 -3.109375 C 4.253906 -3.660156 4.507812 -4.253906 4.65625 -4.890625 C 5.019531 -6.171875 5.359375 -7.445312 5.671875 -8.71875 C 5.804688 -9.320312 6.050781 -9.863281 6.40625 -10.34375 C 6.789062 -10.8125 7.289062 -10.925781 7.90625 -10.6875 C 8.050781 -10.65625 8.164062 -10.582031 8.25 -10.46875 C 8.34375 -10.363281 8.375 -10.25 8.34375 -10.125 C 8.320312 -9.96875 8.296875 -9.8125 8.265625 -9.65625 C 8.148438 -9.332031 8.066406 -9.007812 8.015625 -8.6875 C 7.960938 -8.375 7.976562 -8.128906 8.0625 -7.953125 C 8.207031 -7.742188 8.554688 -7.597656 9.109375 -7.515625 C 9.660156 -7.429688 10.191406 -7.453125 10.703125 -7.578125 Z M 10.703125 -7.578125 "/></g></g></g><g clip-path="url(#ceaa7c5101)"><g clip-path="url(#d8a4275ae7)"><g clip-path="url(#6011a207c6)"><path fill="#231f20" d="M 146.042969 39.476562 C 141.914062 38.90625 137.914062 37.449219 134.417969 35.171875 C 134.210938 35.035156 134 34.894531 133.796875 34.753906 C 134.34375 34.191406 134.855469 33.601562 135.335938 32.988281 C 137.347656 30.402344 138.761719 27.324219 139.019531 24.027344 C 139.070312 23.386719 138.984375 22.671875 138.300781 22.421875 C 137.734375 22.207031 137.074219 22.449219 136.582031 22.746094 C 135.925781 23.152344 135.449219 23.796875 134.996094 24.40625 C 134.429688 25.167969 133.9375 25.980469 133.519531 26.835938 C 133.226562 27.4375 132.984375 28.066406 132.773438 28.707031 C 131.886719 26.914062 130.152344 25.570312 128.136719 25.292969 C 127.167969 25.15625 126.039062 25.476562 125.972656 26.613281 C 125.910156 27.625 126.621094 28.53125 127.191406 29.289062 C 128.761719 31.378906 130.605469 33.222656 132.675781 34.785156 C 127.636719 39.570312 120.683594 41.558594 113.882812 42.453125 C 109.664062 43.007812 105.40625 43.25 101.160156 43.628906 C 97.074219 43.988281 92.992188 44.417969 88.929688 44.988281 C 80.878906 46.121094 72.867188 47.847656 65.300781 50.875 C 58.039062 53.777344 50.902344 57.953125 45.683594 63.871094 C 45.0625 64.578125 44.480469 65.308594 43.933594 66.070312 C 43.863281 66.167969 44.03125 66.289062 44.097656 66.191406 C 46.640625 62.878906 49.800781 60.214844 53.269531 57.90625 C 56.804688 55.554688 60.605469 53.609375 64.539062 52.003906 C 72.453125 48.785156 80.890625 47.015625 89.332031 45.851562 C 93.589844 45.269531 97.863281 44.839844 102.152344 44.472656 C 106.554688 44.101562 110.964844 43.835938 115.335938 43.152344 C 119.539062 42.492188 123.753906 41.425781 127.535156 39.417969 C 129.628906 38.308594 131.601562 36.898438 133.3125 35.230469 C 134.855469 36.324219 136.507812 37.265625 138.257812 38.027344 C 140.722656 39.101562 143.296875 39.796875 145.96875 40.070312 C 146.3125 40.121094 146.390625 39.527344 146.042969 39.476562 Z M 129.605469 31.210938 C 128.867188 30.457031 128.183594 29.648438 127.550781 28.804688 C 127.09375 28.1875 126.09375 26.949219 126.730469 26.160156 C 127.179688 25.601562 128.164062 25.839844 128.75 26 C 129.289062 26.152344 129.796875 26.386719 130.273438 26.679688 C 131.316406 27.328125 132.132812 28.308594 132.585938 29.449219 C 132.667969 29.667969 132.976562 29.679688 133.050781 29.4375 C 133.578125 27.617188 134.546875 25.867188 135.753906 24.402344 C 136.222656 23.832031 136.71875 23.253906 137.457031 23.046875 C 137.695312 22.976562 138.046875 22.914062 138.234375 23.128906 C 138.523438 23.453125 138.316406 24.230469 138.257812 24.617188 C 137.769531 27.855469 136.257812 30.828125 134.121094 33.289062 C 133.820312 33.636719 133.507812 33.972656 133.183594 34.300781 C 131.902344 33.382812 130.699219 32.347656 129.605469 31.210938 Z M 129.605469 31.210938 " fill-opacity="1" fill-rule="nonzero"/></g></g></g><g fill="#231f20" fill-opacity="1"><g transform="translate(84.907226, 56.66185)"><g><path d="M 2.390625 0.0625 C 2.109375 0.0625 1.84375 0.0078125 1.59375 -0.09375 C 1.34375 -0.207031 1.125 -0.359375 0.9375 -0.546875 C 0.75 -0.734375 0.601562 -0.945312 0.5 -1.1875 C 0.394531 -1.4375 0.34375 -1.707031 0.34375 -2 C 0.34375 -2.28125 0.394531 -2.546875 0.5 -2.796875 C 0.601562 -3.046875 0.75 -3.265625 0.9375 -3.453125 C 1.125 -3.640625 1.34375 -3.785156 1.59375 -3.890625 C 1.84375 -3.992188 2.109375 -4.046875 2.390625 -4.046875 C 2.671875 -4.046875 2.910156 -4 3.109375 -3.90625 C 3.304688 -3.820312 3.472656 -3.734375 3.609375 -3.640625 C 3.765625 -3.515625 3.898438 -3.375 4.015625 -3.21875 L 3.734375 -2.96875 C 3.640625 -3.09375 3.53125 -3.207031 3.40625 -3.3125 C 3.289062 -3.394531 3.148438 -3.472656 2.984375 -3.546875 C 2.816406 -3.617188 2.617188 -3.65625 2.390625 -3.65625 C 2.160156 -3.65625 1.945312 -3.613281 1.75 -3.53125 C 1.550781 -3.445312 1.378906 -3.328125 1.234375 -3.171875 C 1.085938 -3.023438 0.972656 -2.847656 0.890625 -2.640625 C 0.804688 -2.441406 0.765625 -2.226562 0.765625 -2 C 0.765625 -1.757812 0.804688 -1.535156 0.890625 -1.328125 C 0.972656 -1.128906 1.085938 -0.957031 1.234375 -0.8125 C 1.378906 -0.664062 1.550781 -0.550781 1.75 -0.46875 C 1.945312 -0.382812 2.160156 -0.34375 2.390625 -0.34375 C 2.617188 -0.34375 2.816406 -0.375 2.984375 -0.4375 C 3.160156 -0.507812 3.304688 -0.59375 3.421875 -0.6875 C 3.554688 -0.78125 3.671875 -0.894531 3.765625 -1.03125 L 4.046875 -0.765625 C 3.929688 -0.609375 3.789062 -0.472656 3.625 -0.359375 C 3.488281 -0.253906 3.316406 -0.15625 3.109375 -0.0625 C 2.910156 0.0195312 2.671875 0.0625 2.390625 0.0625 Z M 2.390625 0.0625 "/></g></g></g><g fill="#231f20" fill-opacity="1"><g transform="translate(91.422641, 56.66185)"><g><path d="M 0.59375 -4 L 3.34375 -4 L 3.34375 -3.59375 L 1.03125 -3.59375 L 1.03125 -2.28125 L 2.875 -2.28125 L 2.875 -1.875 L 1.03125 -1.875 L 1.03125 -0.40625 L 3.390625 -0.40625 L 3.390625 0 L 0.59375 0 Z M 0.59375 -4 "/></g></g></g><g fill="#231f20" fill-opacity="1"><g transform="translate(97.31056, 56.66185)"><g><path d="M 0.59375 -4 L 2.203125 -4 C 2.378906 -4 2.539062 -3.96875 2.6875 -3.90625 C 2.84375 -3.84375 2.972656 -3.753906 3.078125 -3.640625 C 3.179688 -3.535156 3.265625 -3.410156 3.328125 -3.265625 C 3.390625 -3.117188 3.421875 -2.960938 3.421875 -2.796875 C 3.421875 -2.566406 3.375 -2.378906 3.28125 -2.234375 C 3.195312 -2.085938 3.101562 -1.96875 3 -1.875 C 2.882812 -1.78125 2.75 -1.707031 2.59375 -1.65625 L 3.53125 0 L 3.046875 0 L 2.171875 -1.59375 L 1.03125 -1.59375 L 1.03125 0 L 0.59375 0 Z M 2.203125 -2 C 2.441406 -2 2.632812 -2.066406 2.78125 -2.203125 C 2.925781 -2.347656 3 -2.546875 3 -2.796875 C 3 -3.035156 2.925781 -3.226562 2.78125 -3.375 C 2.632812 -3.519531 2.441406 -3.59375 2.203125 -3.59375 L 1.03125 -3.59375 L 1.03125 -2 Z M 2.203125 -2 "/></g></g></g><g fill="#231f20" fill-opacity="1"><g transform="translate(103.398134, 56.66185)"><g><path d="M 1.765625 -4 L 2.171875 -4 L 3.828125 0 L 3.359375 0 L 2.90625 -1.109375 L 1.03125 -1.109375 L 0.578125 0 L 0.109375 0 Z M 2.734375 -1.515625 L 1.96875 -3.390625 L 1.203125 -1.515625 Z M 2.734375 -1.515625 "/></g></g></g><g fill="#231f20" fill-opacity="1"><g transform="translate(109.571274, 56.66185)"><g><path d="M 0.59375 -4 L 0.96875 -4 L 2.625 -1.828125 L 4.28125 -4 L 4.640625 -4 L 4.640625 0 L 4.21875 0 L 4.21875 -3.25 L 2.625 -1.140625 L 1.03125 -3.25 L 1.03125 0 L 0.59375 0 Z M 0.59375 -4 "/></g></g></g><g fill="#231f20" fill-opacity="1"><g transform="translate(117.056447, 56.66185)"><g><path d="M 0.59375 -4 L 1.03125 -4 L 1.03125 0 L 0.59375 0 Z M 0.828125 -4.609375 C 0.753906 -4.609375 0.691406 -4.632812 0.640625 -4.6875 C 0.597656 -4.738281 0.578125 -4.800781 0.578125 -4.875 C 0.578125 -4.945312 0.597656 -5.003906 0.640625 -5.046875 C 0.691406 -5.097656 0.753906 -5.125 0.828125 -5.125 C 0.898438 -5.125 0.960938 -5.097656 1.015625 -5.046875 C 1.066406 -5.003906 1.09375 -4.945312 1.09375 -4.875 C 1.09375 -4.800781 1.066406 -4.738281 1.015625 -4.6875 C 0.960938 -4.632812 0.898438 -4.609375 0.828125 -4.609375 Z M 0.828125 -4.609375 "/></g></g></g><g fill="#231f20" fill-opacity="1"><g transform="translate(120.919277, 56.66185)"><g><path d="M 2.390625 0.0625 C 2.109375 0.0625 1.84375 0.0078125 1.59375 -0.09375 C 1.34375 -0.207031 1.125 -0.359375 0.9375 -0.546875 C 0.75 -0.734375 0.601562 -0.945312 0.5 -1.1875 C 0.394531 -1.4375 0.34375 -1.707031 0.34375 -2 C 0.34375 -2.28125 0.394531 -2.546875 0.5 -2.796875 C 0.601562 -3.046875 0.75 -3.265625 0.9375 -3.453125 C 1.125 -3.640625 1.34375 -3.785156 1.59375 -3.890625 C 1.84375 -3.992188 2.109375 -4.046875 2.390625 -4.046875 C 2.671875 -4.046875 2.910156 -4 3.109375 -3.90625 C 3.304688 -3.820312 3.472656 -3.734375 3.609375 -3.640625 C 3.765625 -3.515625 3.898438 -3.375 4.015625 -3.21875 L 3.734375 -2.96875 C 3.640625 -3.09375 3.53125 -3.207031 3.40625 -3.3125 C 3.289062 -3.394531 3.148438 -3.472656 2.984375 -3.546875 C 2.816406 -3.617188 2.617188 -3.65625 2.390625 -3.65625 C 2.160156 -3.65625 1.945312 -3.613281 1.75 -3.53125 C 1.550781 -3.445312 1.378906 -3.328125 1.234375 -3.171875 C 1.085938 -3.023438 0.972656 -2.847656 0.890625 -2.640625 C 0.804688 -2.441406 0.765625 -2.226562 0.765625 -2 C 0.765625 -1.757812 0.804688 -1.535156 0.890625 -1.328125 C 0.972656 -1.128906 1.085938 -0.957031 1.234375 -0.8125 C 1.378906 -0.664062 1.550781 -0.550781 1.75 -0.46875 C 1.945312 -0.382812 2.160156 -0.34375 2.390625 -0.34375 C 2.617188 -0.34375 2.816406 -0.375 2.984375 -0.4375 C 3.160156 -0.507812 3.304688 -0.59375 3.421875 -0.6875 C 3.554688 -0.78125 3.671875 -0.894531 3.765625 -1.03125 L 4.046875 -0.765625 C 3.929688 -0.609375 3.789062 -0.472656 3.625 -0.359375 C 3.488281 -0.253906 3.316406 -0.15625 3.109375 -0.0625 C 2.910156 0.0195312 2.671875 0.0625 2.390625 0.0625 Z M 2.390625 0.0625 "/></g></g></g><g fill="#231f20" fill-opacity="1"><g transform="translate(127.434692, 56.66185)"><g/></g></g><g fill="#231f20" fill-opacity="1"><g transform="translate(130.869681, 56.66185)"><g><path d="M 1.765625 -4 L 2.171875 -4 L 3.828125 0 L 3.359375 0 L 2.90625 -1.109375 L 1.03125 -1.109375 L 0.578125 0 L 0.109375 0 Z M 2.734375 -1.515625 L 1.96875 -3.390625 L 1.203125 -1.515625 Z M 2.734375 -1.515625 "/></g></g></g><g fill="#231f20" fill-opacity="1"><g transform="translate(137.042821, 56.66185)"><g><path d="M 0.59375 -4 L 2.203125 -4 C 2.378906 -4 2.539062 -3.96875 2.6875 -3.90625 C 2.84375 -3.84375 2.972656 -3.753906 3.078125 -3.640625 C 3.179688 -3.535156 3.265625 -3.410156 3.328125 -3.265625 C 3.390625 -3.117188 3.421875 -2.960938 3.421875 -2.796875 C 3.421875 -2.566406 3.375 -2.378906 3.28125 -2.234375 C 3.195312 -2.085938 3.101562 -1.96875 3 -1.875 C 2.882812 -1.78125 2.75 -1.707031 2.59375 -1.65625 L 3.53125 0 L 3.046875 0 L 2.171875 -1.59375 L 1.03125 -1.59375 L 1.03125 0 L 0.59375 0 Z M 2.203125 -2 C 2.441406 -2 2.632812 -2.066406 2.78125 -2.203125 C 2.925781 -2.347656 3 -2.546875 3 -2.796875 C 3 -3.035156 2.925781 -3.226562 2.78125 -3.375 C 2.632812 -3.519531 2.441406 -3.59375 2.203125 -3.59375 L 1.03125 -3.59375 L 1.03125 -2 Z M 2.203125 -2 "/></g></g></g><g fill="#231f20" fill-opacity="1"><g transform="translate(143.130394, 56.66185)"><g><path d="M 1.375 -3.59375 L 0.109375 -3.59375 L 0.109375 -4 L 3.046875 -4 L 3.046875 -3.59375 L 1.796875 -3.59375 L 1.796875 0 L 1.375 0 Z M 1.375 -3.59375 "/></g></g></g></svg>